<svg width="139" height="28" viewBox="0 0 139 28" fill="none" xmlns="http://www.w3.org/2000/svg">
<path d="M6.966 8.85691C8.598 8.85691 9.798 9.18691 10.566 9.84691C11.346 10.5069 11.736 11.3709 11.736 12.4389C11.736 12.7989 11.688 13.2009 11.592 13.6449C11.364 14.6289 10.938 15.4929 10.314 16.2369C9.69 16.9689 8.922 17.5389 8.01 17.9469C7.11 18.3429 6.132 18.5409 5.076 18.5409C3.408 18.5409 2.172 18.2109 1.368 17.5509C0.576 16.8789 0.18 15.9909 0.18 14.8869C0.18 14.5149 0.228 14.1009 0.324 13.6449C0.552 12.7089 0.984 11.8809 1.62 11.1609C2.268 10.4289 3.054 9.86491 3.978 9.46891C4.914 9.06091 5.91 8.85691 6.966 8.85691ZM6.912 10.4589C6.66 10.4589 6.39 10.6869 6.102 11.1429C5.826 11.5869 5.496 12.4329 5.112 13.6809C4.728 14.9289 4.536 15.8049 4.536 16.3089C4.536 16.5729 4.578 16.7529 4.662 16.8489C4.746 16.9329 4.86 16.9749 5.004 16.9749C5.256 16.9989 5.514 16.7829 5.778 16.3269C6.054 15.8709 6.396 14.9829 6.804 13.6629C7.176 12.4989 7.362 11.6529 7.362 11.1249C7.362 10.8729 7.32 10.6989 7.236 10.6029C7.164 10.5069 7.056 10.4589 6.912 10.4589ZM22.4949 15.8949C22.4709 15.9429 22.4589 16.0149 22.4589 16.1109C22.4589 16.1949 22.4769 16.2609 22.5129 16.3089C22.5609 16.3569 22.6209 16.3809 22.6929 16.3809C22.8369 16.3809 22.9569 16.3209 23.0529 16.2009C23.1609 16.0689 23.2329 16.0029 23.2689 16.0029C23.3289 16.0029 23.3769 16.0449 23.4129 16.1289C23.4489 16.2009 23.4669 16.2909 23.4669 16.3989C23.4789 16.7469 23.3649 17.0889 23.1249 17.4249C22.8849 17.7489 22.5309 18.0189 22.0629 18.2349C21.6069 18.4389 21.0549 18.5409 20.4069 18.5409C19.6149 18.5409 18.9849 18.3609 18.5169 18.0009C18.0489 17.6289 17.8089 17.1369 17.7969 16.5249C17.7969 16.0809 17.9049 15.5829 18.1209 15.0309L19.1109 12.4389C19.1709 12.2829 19.2009 12.1569 19.2009 12.0609C19.2009 11.9049 19.1469 11.7849 19.0389 11.7009C18.9429 11.6049 18.8229 11.5569 18.6789 11.5569C18.4509 11.5569 18.2169 11.6649 17.9769 11.8809C17.7489 12.0849 17.5629 12.4209 17.4189 12.8889V12.8529L16.2849 16.5069C16.2489 16.6509 16.2309 16.7769 16.2309 16.8849C16.2309 17.0409 16.2609 17.1669 16.3209 17.2629C16.3809 17.3469 16.4649 17.4309 16.5729 17.5149C16.6569 17.5989 16.7169 17.6709 16.7529 17.7309C16.7889 17.7789 16.7949 17.8449 16.7709 17.9289C16.7109 18.0849 16.5909 18.1989 16.4109 18.2709C16.2309 18.3429 15.9549 18.3789 15.5829 18.3789H11.4789C11.1669 18.3789 10.9389 18.3309 10.7949 18.2349C10.6509 18.1269 10.6029 17.9889 10.6509 17.8209C10.6989 17.6769 10.8249 17.5509 11.0289 17.4429C11.2089 17.3469 11.3589 17.2329 11.4789 17.1009C11.5989 16.9689 11.7009 16.7589 11.7849 16.4709L14.5209 7.48891C14.5569 7.38091 14.5749 7.29091 14.5749 7.21891C14.5749 7.08691 14.5389 6.97891 14.4669 6.89491C14.4069 6.81091 14.3229 6.72691 14.2149 6.64291C14.0949 6.54691 14.0049 6.46291 13.9449 6.39091C13.8969 6.31891 13.8909 6.22291 13.9269 6.10291C13.9989 5.82691 14.3769 5.58691 15.0609 5.38291C15.7449 5.17891 16.4589 5.07691 17.2029 5.07691C17.8989 5.07691 18.4089 5.20891 18.7329 5.47291C19.0689 5.73691 19.2369 6.09691 19.2369 6.55291C19.2369 6.81691 19.1949 7.07491 19.1109 7.32691L18.1389 10.4949C18.6069 9.88291 19.0989 9.45691 19.6149 9.21691C20.1429 8.97691 20.7129 8.85691 21.3249 8.85691C22.0569 8.85691 22.6449 9.07891 23.0889 9.52291C23.5449 9.96691 23.7729 10.5429 23.7729 11.2509C23.7729 11.6229 23.7129 11.9889 23.5929 12.3489L22.4949 15.8949ZM41.3582 15.8949C41.3342 15.9429 41.3222 16.0149 41.3222 16.1109C41.3222 16.1949 41.3402 16.2609 41.3762 16.3089C41.4242 16.3569 41.4842 16.3809 41.5562 16.3809C41.7002 16.3809 41.8202 16.3209 41.9162 16.2009C42.0242 16.0689 42.0962 16.0029 42.1322 16.0029C42.1922 16.0029 42.2402 16.0449 42.2762 16.1289C42.3122 16.2009 42.3302 16.2909 42.3302 16.3989C42.3422 16.7469 42.2282 17.0889 41.9882 17.4249C41.7482 17.7489 41.3942 18.0189 40.9262 18.2349C40.4702 18.4389 39.9182 18.5409 39.2702 18.5409C38.4782 18.5409 37.8482 18.3609 37.3802 18.0009C36.9122 17.6289 36.6722 17.1369 36.6602 16.5249C36.6602 16.0809 36.7682 15.5829 36.9842 15.0309L37.9742 12.4389C38.0342 12.2829 38.0642 12.1569 38.0642 12.0609C38.0642 11.9049 38.0102 11.7849 37.9022 11.7009C37.8062 11.6049 37.6862 11.5569 37.5422 11.5569C37.3382 11.5569 37.1282 11.6469 36.9122 11.8269C36.6962 12.0069 36.5042 12.2889 36.3362 12.6729L35.3462 15.8949C35.3222 15.9429 35.3102 16.0149 35.3102 16.1109C35.3102 16.1949 35.3282 16.2609 35.3642 16.3089C35.4122 16.3569 35.4722 16.3809 35.5442 16.3809C35.6882 16.3809 35.8082 16.3209 35.9042 16.2009C36.0122 16.0689 36.0842 16.0029 36.1202 16.0029C36.1802 16.0029 36.2282 16.0449 36.2642 16.1289C36.3002 16.2009 36.3182 16.2909 36.3182 16.3989C36.3302 16.7469 36.2162 17.0889 35.9762 17.4249C35.7362 17.7489 35.3822 18.0189 34.9142 18.2349C34.4582 18.4389 33.9062 18.5409 33.2582 18.5409C32.4662 18.5409 31.8362 18.3609 31.3682 18.0009C30.9002 17.6289 30.6602 17.1369 30.6482 16.5249C30.6482 16.0809 30.7562 15.5829 30.9722 15.0309L31.9622 12.4389C32.0222 12.2829 32.0522 12.1569 32.0522 12.0609C32.0522 11.9049 31.9982 11.7849 31.8902 11.7009C31.7942 11.6049 31.6742 11.5569 31.5302 11.5569C31.3262 11.5569 31.1162 11.6469 30.9002 11.8269C30.6842 11.9949 30.5042 12.2709 30.3602 12.6549L29.1722 16.5069C29.1242 16.6389 29.1002 16.7649 29.1002 16.8849C29.1002 17.0289 29.1302 17.1489 29.1902 17.2449C29.2502 17.3289 29.3342 17.4189 29.4422 17.5149C29.5262 17.5869 29.5862 17.6529 29.6222 17.7129C29.6582 17.7729 29.6642 17.8449 29.6402 17.9289C29.5922 18.0849 29.4782 18.1989 29.2982 18.2709C29.1182 18.3429 28.8362 18.3789 28.4522 18.3789H24.3482C24.0362 18.3789 23.8142 18.3309 23.6822 18.2349C23.5382 18.1269 23.4842 17.9889 23.5202 17.8209C23.5682 17.6769 23.6942 17.5509 23.8982 17.4429C24.0782 17.3469 24.2282 17.2329 24.3482 17.1009C24.4682 16.9689 24.5702 16.7589 24.6542 16.4709L26.2562 11.2689C26.2802 11.2089 26.2922 11.1249 26.2922 11.0169C26.2922 10.8849 26.2622 10.7829 26.2022 10.7109C26.1542 10.6389 26.0702 10.5489 25.9502 10.4409C25.8302 10.3449 25.7462 10.2609 25.6982 10.1889C25.6502 10.1169 25.6442 10.0209 25.6802 9.90091C25.7522 9.62491 26.1302 9.38491 26.8142 9.18091C27.4982 8.96491 28.2122 8.85691 28.9562 8.85691C29.5442 8.85691 30.0062 9.01891 30.3422 9.34291C30.6902 9.66691 30.8582 10.1109 30.8462 10.6749C31.3382 9.99091 31.8542 9.51691 32.3942 9.25291C32.9462 8.98891 33.5402 8.85691 34.1762 8.85691C34.8722 8.85691 35.4362 9.06091 35.8682 9.46891C36.3122 9.86491 36.5582 10.3869 36.6062 11.0349C37.1222 10.2189 37.6742 9.65491 38.2622 9.34291C38.8502 9.01891 39.4922 8.85691 40.1882 8.85691C40.9202 8.85691 41.5082 9.07891 41.9522 9.52291C42.4082 9.96691 42.6362 10.5429 42.6362 11.2509C42.6362 11.6229 42.5762 11.9889 42.4562 12.3489L41.3582 15.8949ZM52.4658 8.85691C52.9938 8.85691 53.4138 9.07291 53.7258 9.50491C54.0498 9.92491 54.2118 10.5009 54.2118 11.2329C54.2118 11.8689 54.0978 12.5529 53.8698 13.2849C53.4258 14.7609 52.7118 16.1529 51.7278 17.4609C50.7558 18.7689 49.6338 19.8189 48.3618 20.6109C47.1018 21.4029 45.8418 21.7989 44.5818 21.7989C43.9578 21.7989 43.4178 21.6909 42.9618 21.4749C42.5178 21.2589 42.1818 20.9709 41.9538 20.6109C41.7138 20.2509 41.5938 19.8669 41.5938 19.4589C41.5938 19.2789 41.6238 19.0809 41.6838 18.8649C41.7918 18.5289 41.9718 18.2709 42.2238 18.0909C42.4758 17.9109 42.7758 17.8209 43.1238 17.8209C43.6758 17.8209 44.1258 18.0069 44.4738 18.3789C44.8338 18.7629 45.0618 19.2849 45.1578 19.9449C45.9258 19.9089 46.6338 19.5789 47.2818 18.9549C46.6698 18.8469 46.2138 18.6429 45.9138 18.3429C45.6258 18.0309 45.4278 17.5509 45.3198 16.9029L44.5998 12.4929C44.5638 12.2649 44.5098 12.1089 44.4378 12.0249C44.3778 11.9289 44.2938 11.8809 44.1858 11.8809C44.1018 11.8809 43.9998 11.9229 43.8798 12.0069C43.7718 12.0909 43.6938 12.1329 43.6458 12.1329C43.5498 12.1329 43.5018 12.0309 43.5018 11.8269C43.5018 11.6589 43.5318 11.4789 43.5918 11.2869C43.8078 10.6029 44.2098 10.0269 44.7978 9.55891C45.3858 9.07891 46.0698 8.83891 46.8498 8.83891C47.6178 8.83891 48.1818 9.06691 48.5418 9.52291C48.9138 9.97891 49.1538 10.6809 49.2618 11.6289L49.8018 15.5889C49.8378 15.8889 49.9458 16.0389 50.1258 16.0389C50.3418 16.0389 50.5938 15.8469 50.8818 15.4629C51.1698 15.0669 51.4518 14.5089 51.7278 13.7889C51.3678 13.4649 51.0918 13.0929 50.8998 12.6729C50.7078 12.2529 50.6118 11.8029 50.6118 11.3229C50.6118 10.9509 50.6598 10.6149 50.7558 10.3149C50.8998 9.83491 51.1218 9.47491 51.4218 9.23491C51.7338 8.98291 52.0818 8.85691 52.4658 8.85691ZM61.4319 5.07691C62.7159 5.07691 63.6759 5.27491 64.3119 5.67091C64.9599 6.05491 65.2839 6.52891 65.2839 7.09291C65.2839 7.54891 65.0919 7.90291 64.7079 8.15491C64.3359 8.39491 63.8439 8.51491 63.2319 8.51491C62.6679 8.51491 62.2299 8.37691 61.9179 8.10091C61.6059 7.82491 61.4499 7.48291 61.4499 7.07491C61.4499 6.82291 61.5279 6.55891 61.6839 6.28291C61.3239 6.28291 61.0239 6.37291 60.7839 6.55291C60.5439 6.72091 60.3579 7.01491 60.2259 7.43491C60.1539 7.69891 60.1179 7.94491 60.1179 8.17291C60.1179 8.46091 60.1659 8.68891 60.2619 8.85691C60.3699 9.01291 60.5199 9.09091 60.7119 9.09091H61.7739C62.3979 9.09091 62.7099 9.28291 62.7099 9.66691C62.7099 9.71491 62.6979 9.78691 62.6739 9.88291C62.6019 10.1469 62.4519 10.3449 62.2239 10.4769C62.0079 10.6089 61.6779 10.6749 61.2339 10.6749H60.6939L58.9119 16.5069C58.8759 16.6509 58.8579 16.7769 58.8579 16.8849C58.8579 17.0409 58.8879 17.1669 58.9479 17.2629C59.0079 17.3469 59.0919 17.4309 59.1999 17.5149C59.2839 17.5989 59.3439 17.6709 59.3799 17.7309C59.4159 17.7789 59.4219 17.8449 59.3979 17.9289C59.3379 18.0849 59.2179 18.1989 59.0379 18.2709C58.8579 18.3429 58.5819 18.3789 58.2099 18.3789H54.1059C53.7939 18.3789 53.5659 18.3309 53.4219 18.2349C53.2779 18.1269 53.2299 17.9889 53.2779 17.8209C53.3259 17.6769 53.4519 17.5509 53.6559 17.4429C53.8359 17.3469 53.9859 17.2329 54.1059 17.1009C54.2259 16.9689 54.3279 16.7589 54.4119 16.4709L55.8159 11.8629C55.8759 11.6829 55.9059 11.4969 55.9059 11.3049C55.9059 11.0649 55.8519 10.8789 55.7439 10.7469C55.6479 10.6029 55.4979 10.4469 55.2939 10.2789C55.1619 10.1709 55.0599 10.0809 54.9879 10.0089C54.9279 9.92491 54.8979 9.82891 54.8979 9.72091C54.8859 9.49291 54.9639 9.33091 55.1319 9.23491C55.3119 9.13891 55.6479 9.09091 56.1399 9.09091H56.5899C56.5059 8.79091 56.4639 8.49091 56.4639 8.19091C56.4639 7.89091 56.5179 7.57891 56.6259 7.25491C56.8539 6.64291 57.3399 6.12691 58.0839 5.70691C58.8399 5.28691 59.9559 5.07691 61.4319 5.07691ZM68.5422 8.85691C70.1742 8.85691 71.3742 9.18691 72.1422 9.84691C72.9222 10.5069 73.3122 11.3709 73.3122 12.4389C73.3122 12.7989 73.2642 13.2009 73.1682 13.6449C72.9402 14.6289 72.5142 15.4929 71.8902 16.2369C71.2662 16.9689 70.4982 17.5389 69.5862 17.9469C68.6862 18.3429 67.7082 18.5409 66.6522 18.5409C64.9842 18.5409 63.7482 18.2109 62.9442 17.5509C62.1522 16.8789 61.7562 15.9909 61.7562 14.8869C61.7562 14.5149 61.8042 14.1009 61.9002 13.6449C62.1282 12.7089 62.5602 11.8809 63.1962 11.1609C63.8442 10.4289 64.6302 9.86491 65.5542 9.46891C66.4902 9.06091 67.4862 8.85691 68.5422 8.85691ZM68.4882 10.4589C68.2362 10.4589 67.9662 10.6869 67.6782 11.1429C67.4022 11.5869 67.0722 12.4329 66.6882 13.6809C66.3042 14.9289 66.1122 15.8049 66.1122 16.3089C66.1122 16.5729 66.1542 16.7529 66.2382 16.8489C66.3222 16.9329 66.4362 16.9749 66.5802 16.9749C66.8322 16.9989 67.0902 16.7829 67.3542 16.3269C67.6302 15.8709 67.9722 14.9829 68.3802 13.6629C68.7522 12.4989 68.9382 11.6529 68.9382 11.1249C68.9382 10.8729 68.8962 10.6989 68.8122 10.6029C68.7402 10.5069 68.6322 10.4589 68.4882 10.4589ZM80.3547 8.85691C81.9867 8.85691 83.1867 9.18691 83.9547 9.84691C84.7347 10.5069 85.1247 11.3709 85.1247 12.4389C85.1247 12.7989 85.0767 13.2009 84.9807 13.6449C84.7527 14.6289 84.3267 15.4929 83.7027 16.2369C83.0787 16.9689 82.3107 17.5389 81.3987 17.9469C80.4987 18.3429 79.5207 18.5409 78.4647 18.5409C76.7967 18.5409 75.5607 18.2109 74.7567 17.5509C73.9647 16.8789 73.5687 15.9909 73.5687 14.8869C73.5687 14.5149 73.6167 14.1009 73.7127 13.6449C73.9407 12.7089 74.3727 11.8809 75.0087 11.1609C75.6567 10.4289 76.4427 9.86491 77.3667 9.46891C78.3027 9.06091 79.2987 8.85691 80.3547 8.85691ZM80.3007 10.4589C80.0487 10.4589 79.7787 10.6869 79.4907 11.1429C79.2147 11.5869 78.8847 12.4329 78.5007 13.6809C78.1167 14.9289 77.9247 15.8049 77.9247 16.3089C77.9247 16.5729 77.9667 16.7529 78.0507 16.8489C78.1347 16.9329 78.2487 16.9749 78.3927 16.9749C78.6447 16.9989 78.9027 16.7829 79.1667 16.3269C79.4427 15.8709 79.7847 14.9829 80.1927 13.6629C80.5647 12.4989 80.7507 11.6529 80.7507 11.1249C80.7507 10.8729 80.7087 10.6989 80.6247 10.6029C80.5527 10.5069 80.4447 10.4589 80.3007 10.4589ZM95.2632 15.7869C95.2392 15.8829 95.2272 15.9489 95.2272 15.9849C95.2272 16.0689 95.2512 16.1349 95.2992 16.1829C95.3472 16.2309 95.4072 16.2549 95.4792 16.2549C95.6232 16.2549 95.7432 16.1949 95.8392 16.0749C95.9472 15.9429 96.0192 15.8769 96.0552 15.8769C96.1152 15.8769 96.1632 15.9189 96.1992 16.0029C96.2352 16.0869 96.2532 16.1829 96.2532 16.2909C96.2652 16.6149 96.1392 16.9449 95.8752 17.2809C95.6232 17.6169 95.2812 17.8929 94.8492 18.1089C94.4172 18.3249 93.9492 18.4329 93.4452 18.4329C92.8452 18.4329 92.3232 18.3189 91.8792 18.0909C91.4352 17.8629 91.1292 17.5629 90.9612 17.1909C90.6372 17.6109 90.2652 17.9229 89.8452 18.1269C89.4252 18.3309 88.9812 18.4329 88.5132 18.4329C87.9612 18.4329 87.4452 18.2949 86.9652 18.0189C86.4972 17.7429 86.1192 17.3529 85.8312 16.8489C85.5552 16.3329 85.4172 15.7509 85.4172 15.1029C85.4172 14.0109 85.6212 12.9849 86.0292 12.0249C86.4492 11.0529 87.0312 10.2729 87.7752 9.68491C88.5192 9.08491 89.3652 8.78491 90.3132 8.78491C90.8292 8.78491 91.2672 8.84491 91.6272 8.96491C91.9992 9.08491 92.3352 9.26491 92.6352 9.50491L93.2472 7.48891C93.2832 7.38091 93.3012 7.29091 93.3012 7.21891C93.3012 7.08691 93.2652 6.97891 93.1932 6.89491C93.1332 6.81091 93.0492 6.72691 92.9412 6.64291C92.8212 6.54691 92.7312 6.46291 92.6712 6.39091C92.6232 6.31891 92.6172 6.22291 92.6532 6.10291C92.7252 5.82691 93.1032 5.58691 93.7872 5.38291C94.4712 5.17891 95.1852 5.07691 95.9292 5.07691C96.6252 5.07691 97.1352 5.20891 97.4592 5.47291C97.7952 5.73691 97.9632 6.09691 97.9632 6.55291C97.9632 6.81691 97.9212 7.07491 97.8372 7.32691L95.2632 15.7869ZM92.2572 10.7289C92.0652 10.5609 91.8552 10.4769 91.6272 10.4769C91.2792 10.4769 90.9372 10.7349 90.6012 11.2509C90.2652 11.7669 89.9952 12.3909 89.7912 13.1229C89.5872 13.8549 89.4912 14.5149 89.5032 15.1029C89.5032 15.7629 89.7192 16.0929 90.1512 16.0929C90.3072 16.0929 90.4392 16.0329 90.5472 15.9129C90.6552 15.7809 90.7572 15.5709 90.8532 15.2829L92.2572 10.7289Z" fill="white"/>
</svg>
